<svg id="Layer_1" data-name="Layer 1" xmlns="http://www.w3.org/2000/svg" xmlns:xlink="http://www.w3.org/1999/xlink" viewBox="0 0 48 48"><defs><style>.cls-1{fill:url(#linear-gradient);}.cls-2{fill:url(#linear-gradient-2);}.cls-3{fill:url(#linear-gradient-3);}.cls-4{fill:url(#linear-gradient-4);}.cls-5{fill:url(#linear-gradient-5);}.cls-6{fill:url(#linear-gradient-6);}.cls-7{fill:url(#linear-gradient-7);}.cls-8{fill:url(#linear-gradient-8);}.cls-9{fill:url(#linear-gradient-9);}</style><linearGradient id="linear-gradient" x1="25.38" y1="3.44" x2="11.84" y2="18.12" gradientUnits="userSpaceOnUse"><stop offset="0" stop-color="#1586FD"/><stop offset="1" stop-color="#2d57a2"/></linearGradient><linearGradient id="linear-gradient-2" x1="8.67" y1="12.53" x2="13.97" y2="36.44" xlink:href="#linear-gradient"/><linearGradient id="linear-gradient-3" x1="34.06" y1="11.12" x2="39.15" y2="35.35" gradientUnits="userSpaceOnUse"><stop offset="0" stop-color="#2d57a2"/><stop offset="1" stop-color="#1586FD"/></linearGradient><linearGradient id="linear-gradient-4" x1="22.37" y1="44.39" x2="36.97" y2="29.6" xlink:href="#linear-gradient"/><linearGradient id="linear-gradient-5" x1="-490.29" y1="92.53" x2="-490.11" y2="94.77" gradientTransform="translate(531.87 -15.37) rotate(8.02)" gradientUnits="userSpaceOnUse"><stop offset="0" stop-color="#1586FD"/><stop offset="1" stop-color="#2d57a2"/></linearGradient><linearGradient id="linear-gradient-6" x1="-486.09" y1="96.11" x2="-488.34" y2="96.28" xlink:href="#linear-gradient-5"/><linearGradient id="linear-gradient-7" x1="-493.89" y1="96.71" x2="-491.62" y2="96.54" gradientTransform="translate(531.87 -15.37) rotate(8.02)" xlink:href="#linear-gradient"/><linearGradient id="linear-gradient-8" x1="-487.44" y1="93.44" x2="-488.92" y2="95.16" xlink:href="#linear-gradient-5"/><linearGradient id="linear-gradient-9" x1="-492.96" y1="93.86" x2="-491.23" y2="95.34" gradientTransform="translate(531.87 -15.37) rotate(8.02)" xlink:href="#linear-gradient"/></defs><path class="cls-1" d="M28,5.84a2,2,0,0,1,0,2.89L22,14.66l-3.68,3.68h0L14.66,22,11,18.35A5.23,5.23,0,0,1,11,11l3.69-3.69,5.93-5.93a2,2,0,0,1,2.89,0Z"/><path class="cls-2" d="M20.59,30.86,16.1,35.35a2,2,0,0,1-2.88,0l-2-2L7.28,29.41,3.62,25.74h0l0,0a5.22,5.22,0,0,1,0-7.36l3.68-3.69L11,11a5.23,5.23,0,0,0,0,7.38L14.66,22,20.59,28A2,2,0,0,1,20.59,30.86Z"/><path class="cls-3" d="M44.4,22.27l-.24-.22h0L33.34,11.21l-5.93,5.93a2,2,0,0,0,0,2.89l9.38,9.38h0l.23.24A5.23,5.23,0,0,1,37,37l3.69-3.69,3.68-3.69A5.21,5.21,0,0,0,44.4,22.27ZM33.53,16.05l-2.82,1,2.63-5.86,3.07,5.64Z"/><path class="cls-4" d="M37,29.65a2.73,2.73,0,0,0-.25-.23h0L33.34,26l-3.68,3.68h0L26,33.34,20,39.27a2,2,0,0,0,0,2.89l4.49,4.49a2,2,0,0,0,2.89,0l5.93-5.93L37,37A5.23,5.23,0,0,0,37,29.65Zm-7.62,7.14h0a2.73,2.73,0,0,0,.23.25Z"/><polygon class="cls-5" points="33.91 7.85 33.33 10.12 33.03 7.79 33.91 7.85"/><polygon class="cls-6" points="37.12 12.43 34.85 11.85 37.18 11.55 37.12 12.43"/><polygon class="cls-7" points="29.32 11.06 31.59 11.64 29.27 11.94 29.32 11.06"/><polygon class="cls-8" points="36.46 9.47 34.45 10.66 35.88 8.81 36.46 9.47"/><polygon class="cls-9" points="30.95 8.51 32.14 10.52 30.29 9.09 30.95 8.51"/></svg>