<svg id="Layer_1" data-name="Layer 1" xmlns="http://www.w3.org/2000/svg" xmlns:xlink="http://www.w3.org/1999/xlink" viewBox="0 0 16 16"><defs><style>.cls-1{fill:url(#linear-gradient);}.cls-2{fill:url(#linear-gradient-2);}.cls-3{fill:url(#linear-gradient-3);}.cls-4{fill:url(#linear-gradient-4);}.cls-5{fill:url(#linear-gradient-5);}.cls-6{fill:url(#linear-gradient-6);}.cls-7{fill:url(#linear-gradient-7);}.cls-8{fill:url(#linear-gradient-8);}.cls-9{fill:url(#linear-gradient-9);}</style><linearGradient id="linear-gradient" x1="8.46" y1="1.15" x2="3.95" y2="6.04" gradientUnits="userSpaceOnUse"><stop offset="0" stop-color="#1586FD"/><stop offset="1" stop-color="#2d57a2"/></linearGradient><linearGradient id="linear-gradient-2" x1="2.89" y1="4.18" x2="4.66" y2="12.14" xlink:href="#linear-gradient"/><linearGradient id="linear-gradient-3" x1="11.35" y1="3.71" x2="13.05" y2="11.78" gradientUnits="userSpaceOnUse"><stop offset="0" stop-color="#2d57a2"/><stop offset="1" stop-color="#1586FD"/></linearGradient><linearGradient id="linear-gradient-4" x1="7.46" y1="14.79" x2="12.32" y2="9.87" xlink:href="#linear-gradient"/><linearGradient id="linear-gradient-5" x1="-511.04" y1="88.07" x2="-510.98" y2="88.81" gradientTransform="translate(529.48 -13.3) rotate(8.02)" gradientUnits="userSpaceOnUse"><stop offset="0" stop-color="#1586FD"/><stop offset="1" stop-color="#2d57a2"/></linearGradient><linearGradient id="linear-gradient-6" x1="-509.64" y1="89.26" x2="-510.39" y2="89.32" xlink:href="#linear-gradient-5"/><linearGradient id="linear-gradient-7" x1="-512.24" y1="89.46" x2="-511.48" y2="89.4" gradientTransform="translate(529.48 -13.3) rotate(8.02)" xlink:href="#linear-gradient"/><linearGradient id="linear-gradient-8" x1="-510.09" y1="88.37" x2="-510.58" y2="88.94" xlink:href="#linear-gradient-5"/><linearGradient id="linear-gradient-9" x1="-511.93" y1="88.51" x2="-511.35" y2="89" gradientTransform="translate(529.48 -13.3) rotate(8.02)" xlink:href="#linear-gradient"/></defs><path class="cls-1" d="M9.32,2a.67.67,0,0,1,0,1l-2,2L6.12,6.11h0L4.89,7.35,3.66,6.12a1.74,1.74,0,0,1,0-2.46L4.89,2.43l2-2a.69.69,0,0,1,1,0Z"/><path class="cls-2" d="M6.87,10.28l-1.5,1.5a.67.67,0,0,1-1,0l-.67-.67L2.43,9.8,1.21,8.58h0a1.74,1.74,0,0,1,0-2.45L2.43,4.89,3.66,3.66a1.74,1.74,0,0,0,0,2.46L4.89,7.35l2,2A.69.69,0,0,1,6.87,10.28Z"/><path class="cls-3" d="M14.8,7.42l-.08-.07h0L11.11,3.74l-2,2a.69.69,0,0,0,0,1L12.26,9.8h0l.08.08a1.74,1.74,0,0,1,0,2.46l1.23-1.23L14.8,9.88A1.74,1.74,0,0,0,14.8,7.42ZM11.17,5.35l-.93.34.87-1.95,1,1.88Z"/><path class="cls-4" d="M12.34,9.88l-.08-.07h0L11.11,8.65,9.89,9.88h0L8.65,11.11l-2,2a.67.67,0,0,0,0,1l1.49,1.5a.69.69,0,0,0,1,0l2-2,1.23-1.23A1.74,1.74,0,0,0,12.34,9.88ZM9.8,12.26h0l.07.08Z"/><polygon class="cls-5" points="11.3 2.62 11.11 3.38 11.01 2.6 11.3 2.62"/><polygon class="cls-6" points="12.37 4.14 11.62 3.95 12.39 3.85 12.37 4.14"/><polygon class="cls-7" points="9.77 3.69 10.53 3.88 9.76 3.98 9.77 3.69"/><polygon class="cls-8" points="12.15 3.16 11.48 3.56 11.96 2.94 12.15 3.16"/><polygon class="cls-9" points="10.31 2.84 10.71 3.51 10.1 3.03 10.31 2.84"/></svg>